<?xml version="1.0" standalone="no"?>
<!DOCTYPE svg PUBLIC "-//W3C//DTD SVG 20010904//EN"
 "http://www.w3.org/TR/2001/REC-SVG-20010904/DTD/svg10.dtd">
<svg version="1.0" xmlns="http://www.w3.org/2000/svg"
 width="500.000000pt" height="200.000000pt" viewBox="0 0 500.000000 200.000000"
 preserveAspectRatio="xMidYMid meet">
<metadata>
Created by potrace 1.15, written by Peter Selinger 2001-2017
</metadata>
<g transform="translate(0.000000,200.000000) scale(0.100000,-0.100000)"
fill="#000000" stroke="none">
<path d="M2425 1533 c-200 -17 -442 -66 -715 -143 -331 -94 -380 -100 -484
-60 -46 17 -45 1 3 -41 107 -95 216 -117 395 -80 131 28 317 28 498 1 147 -22
168 -24 168 -12 0 10 -268 61 -385 73 -105 10 -162 7 -311 -17 -85 -14 -188
-16 -154 -2 19 7 372 103 515 139 61 16 176 40 257 53 307 53 481 57 662 16
77 -17 320 -87 370 -106 9 -3 16 -2 16 4 0 23 -349 143 -489 167 -76 14 -241
17 -346 8z"/>
<path d="M2080 1311 c0 -11 6 -12 200 -46 298 -52 412 -59 850 -57 223 1 468
-3 545 -8 169 -13 411 -49 558 -84 125 -30 117 -29 117 -16 0 19 -278 96 -470
129 -210 36 -373 44 -715 38 -386 -8 -747 9 -1042 49 -26 3 -43 1 -43 -5z"/>
<path d="M4062 1118 c27 -41 74 -64 179 -87 57 -13 114 -25 127 -28 43 -10 21
14 -40 44 -77 38 -232 93 -260 93 -19 0 -19 -2 -6 -22z"/>
<path d="M2240 723 c0 -16 114 -24 449 -32 340 -8 741 -3 741 9 0 13 -160 20
-677 27 -350 4 -513 3 -513 -4z"/>
</g>
</svg>
